HIERARCHY
ROOT hip
{
  OFFSET 0.0 0.0 0.0
  CHANNELS 6 Xposition Yposition Zposition Zrotation Yrotation Xrotation
  JOINT torso
  {
    OFFSET 0.0 0.0 0.0
    CHANNELS 3 Zrotation Xrotation Yrotation
    JOINT neck
    {
      OFFSET -8.600829999999974 327.7417449999999 60.895874000000276
      CHANNELS 3 Zrotation Xrotation Yrotation
      JOINT head
      {
        OFFSET 0.7211610000001087 266.848846 239.12060599999995
        CHANNELS 3 Zrotation Xrotation Yrotation
        End Site
        {
          OFFSET 0.0 0.0 0.0
        }
      }
    }
    JOINT left_collar
    {
      OFFSET -8.600829999999974 327.7417449999999 60.895874000000276
      CHANNELS 3 Zrotation Xrotation Yrotation
      JOINT left_upper_arm
      {
        OFFSET -122.29599000000002 -5.21875 31.800903999999946
        CHANNELS 3 Zrotation Xrotation Yrotation
        JOINT left_forearm
        {
          OFFSET -195.94708199999997 63.423126000000025 226.99352999999996
          CHANNELS 3 Zrotation Xrotation Yrotation
          JOINT left_hand
          {
            OFFSET -232.19226099999992 28.282164999999964 80.86950699999989
            CHANNELS 3 Zrotation Xrotation Yrotation
            End Site
            {
              OFFSET 0.0 0.0 0.0
            }
          }
        }
      }
    }
    JOINT right_collar
    {
      OFFSET -8.600829999999974 327.7417449999999 60.895874000000276
      CHANNELS 3 Zrotation Xrotation Yrotation
      JOINT right_upper_arm
      {
        OFFSET 168.41261300000002 -11.913361000000066 -9.389160000000174
        CHANNELS 3 Zrotation Xrotation Yrotation
        JOINT right_forearm
        {
          OFFSET 213.49279800000005 104.82293699999997 83.52258300000017
          CHANNELS 3 Zrotation Xrotation Yrotation
          JOINT right_hand
          {
            OFFSET 222.067185 62.005675999999994 -110.52026300000034
            CHANNELS 3 Zrotation Xrotation Yrotation
            End Site
            {
              OFFSET 0.0 0.0 0.0
            }
          }
        }
      }
    }
  }
}
MOTION
Frames: 16
Frame Time: 0.01
-320.2089125793186 164.00789984743847 1329.4533643782438 0.10178519655415956 -1.7358590020647333 -21.643025826177137 0.0906636171429504 1.550695364136393 0.025141929167781834 -7.182653250136102 0.42411443046078134 6.432665262434235 0.0 0.0 0.0 0.5879595227357761 -0.21989739842024694 7.867095184395147 23.598582258331614 29.001176921673803 -20.917970722993523 15.45619981413872 8.390330519210966 -69.36968632344887 0.0 0.0 0.0 -1.2883329737718405 0.05475308799459937 1.543889480383565 -51.15034039184988 17.973610969088767 18.548417944589048 -24.177343356898565 -12.12685485473313 52.329711220326416 0.0 0.0 0.0
-320.142350699512 163.86436411789597 1328.641448599038 0.10196153445905329 -1.740128614718567 -21.6417698838044 0.10549513695611905 1.534848724145729 0.022148273729246958 -7.187800600126721 0.44158649973364666 6.437014866015128 0.0 0.0 0.0 0.5877933418791674 -0.21865690548233097 7.839866125140048 23.586277766967346 28.978683546549913 -20.89534737680497 15.449917001144502 8.381732334773282 -69.36789413436348 0.0 0.0 0.0 -1.299071990875301 0.05419831851304149 1.5426583578189241 -51.13273077275677 17.965993210805483 18.571685889787837 -24.170843323978637 -12.126964217411041 52.32879326670213 0.0 0.0 0.0
-320.0729647932417 163.7215433312604 1327.8168172339244 0.10260161082077142 -1.7449934931748279 -21.639984143774836 0.12016940262179364 1.519598246946085 0.019194173247727812 -7.1927142795773715 0.4586290745719676 6.441161157213343 0.0 0.0 0.0 0.5873793563216861 -0.21743394441465985 7.812013714394524 23.57415689571677 28.95638345101627 -20.87230922861225 15.443887792895378 8.37341466575498 -69.36527564132808 0.0 0.0 0.0 -1.310130084465394 0.0535592691130784 1.5405685905898403 -51.11678029552813 17.959133902957753 18.59390886398363 -24.166621345748307 -12.127031187010317 52.32784992017149 0.0 0.0 0.0
-319.9995584470487 163.5793539207617 1326.9696082517462 0.1041677389540068 -1.7513032390834837 -21.63742914834141 0.1341650589058154 1.5058693670672525 0.016395614475429872 -7.197198261223934 0.4749526917190134 6.444932863097361 0.0 0.0 0.0 0.5865154383523322 -0.21626291280107934 7.783454095096779 23.562401313547618 28.93453338983142 -20.848830155422963 15.43836716521488 8.365704018770042 -69.36159815393032 0.0 0.0 0.0 -1.3213712504521256 0.05281296103270944 1.537274182934043 -51.10313227287998 17.953326123176446 18.614532107833973 -24.165391996037393 -12.127041231136086 52.32675866071293 0.0 0.0 0.0
-319.92093223355306 163.43760588309632 1326.0890636226338 0.10711363251143585 -1.7599653814875666 -21.633848559993297 0.14695954110462944 1.494647802941016 0.013871101685125715 -7.201052472278519 0.490257291752287 6.448155277571376 0.0 0.0 0.0 0.5849743440652104 -0.21518246212480563 7.754088103555152 23.551215307763314 28.913418127372168 -20.82486342913294 15.433629243512444 8.358953025705011 -69.3566334914649 0.0 0.0 0.0 -1.3326369051141342 0.05193841772472745 1.5324434627636128 -51.09240752688468 17.948851200688548 18.63296655470723 -24.16786261311728 -12.126980095197858 52.32540623186104 0.0 0.0 0.0
-319.8359277525314 163.29600687047585 1325.1638195545313 0.11186861452516565 -1.7719243918365801 -21.628972694571715 0.15804344301886422 1.4869592096834436 0.011738471962771524 -7.204076879620915 0.504238257973616 6.450653826083282 0.0 0.0 0.0 0.5825082642282094 -0.21423486691480612 7.723805054511583 23.540823414468086 28.893347694783508 -20.800345181191563 15.429961804846718 8.353533520641308 -69.35016617456094 0.0 0.0 0.0 -1.343746687546279 0.05091755993493105 1.5257700272669406 -51.085183265445146 17.94596849211504 18.648598654504333 -24.174710338164804 -12.126834335977916 52.32369442933806 0.0 0.0 0.0
-319.7434702253102 163.15416537286688 1324.1822061695723 0.11882323877251999 -1.788138862449901 -21.622522436430277 0.16693382755115171 1.4838465678196702 0.010111720743049155 -7.206075606007497 0.516593534811473 6.452257638439513 0.0 0.0 0.0 0.5788550037811534 -0.2134651352759481 7.692487589893294 23.531466425861364 28.87465275865998 -20.775200150219668 15.427659564366925 8.349827959649 -69.34200186152384 0.0 0.0 0.0 -1.3545002144249165 0.049735995603286516 1.5169826612392732 -51.081971840305016 17.94490510383474 18.660802810247183 -24.186557891680604 -12.126591873994762 52.32154529563058 0.0 0.0 0.0
-319.64260787180837 163.01159243296883 1323.132545320106 0.12831682528940097 -1.809557389726106 -21.614213336233004 0.17318607939650335 1.4863458007343697 0.009097934445201352 -7.206860934093844 0.5270316568177678 6.452803004281727 0.0 0.0 0.0 0.5737456905552994 -0.2129198610034056 7.660017268285872 23.523395776615505 28.85767804982343 -20.749349462905105 15.42701637762239 8.34821935145064 -69.33197575305631 0.0 0.0 0.0 -1.364679864246626 0.04838366856506436 1.5058538489234954 -51.083200029990444 17.945845893025368 18.668956141179187 -24.203948930453986 -12.126242538070041 52.318905599022344 0.0 0.0 0.0
-319.5325463841858 162.86770153920202 1322.0034355933606 0.1406272609191305 -1.8370937559048939 -21.60375964286976 0.1764040289437919 1.495460214837317 0.008794419123230106 -7.206257046198163 0.5352804190522316 6.4521365797113095 0.0 0.0 0.0 0.5669137748133347 -0.2126458372147502 7.626280455323635 23.516866436712963 28.842773942291725 -20.722719982677127 15.42831658927729 8.349080005659966 -69.31996066722445 0.0 0.0 0.0 -1.3740546077958402 0.046855336002604206 1.4922065691247788 -51.089189554541456 17.94892411610752 18.672455046429416 -24.227323973029694 -12.125778572689589 52.315750549462685 0.0 0.0 0.0
-319.41267697060044 162.72180658469514 1320.7840143308347 0.1559632818736513 -1.871602040529118 -21.5908779980885 0.17624819031303524 1.5121344211552328 0.009286105726228058 -7.2041033556730145 0.5410958700517974 6.450118221752377 0.0 0.0 0.0 0.5581049775741005 -0.2126884697632878 7.591174066741133 23.51212853861907 28.830286407497628 -20.69525467623685 15.431825827851286 8.35275950348549 -69.30587447471683 0.0 0.0 0.0 -1.3823848447823741 0.045150848562134374 1.475919108935584 -51.100139575936446 17.954213123447982 18.670732903378518 -24.256997942389177 -12.125195078644168 52.31208675794298 0.0 0.0 0.0
-319.28259668764025 162.57311805543486 1319.4641877360286 0.17445933799293406 -1.9138523106549514 -21.575290522253304 0.17244205237560523 1.537228427842261 0.010643303305409656 -7.200257305253262 0.5442713037540629 6.446623345158925 0.0 0.0 0.0 0.5470877970538245 -0.21309004043677493 7.554610781134777 23.509418034757868 28.820545679425493 -20.66692346931654 15.437781577753897 8.359572342579977 -69.28968658590883 0.0 0.0 0.0 -1.3894281669790955 0.04327520948217903 1.456927663149513 -51.116111944465814 17.9617195075581 18.66327817324495 -24.293140368520177 -12.124490359819042 52.30795448379998 0.0 0.0 0.0
-319.14212011284303 162.42073790942902 1318.0348218984598 0.1961730299161345 -1.9645075312422746 -21.55672704243775 0.16477644249521373 1.5714926009886312 0.012919860474543092 -7.194596533875586 0.5446459370551984 6.44154471948711 0.0 0.0 0.0 0.5336641811268171 -0.2138878739889978 7.516523420764945 23.50894672759646 28.813854050814868 -20.637734113700507 15.446383863062476 8.369785714502822 -69.27142319905718 0.0 0.0 0.0 -1.3949459451678519 0.0412383930838316 1.4352265383354996 -51.137019903875995 17.9713780876736 18.649652143161372 -24.335759255313086 -12.123666153236378 52.30342924448669 0.0 0.0 0.0
-318.9912818182137 162.26365391480564 1316.4878897674153 0.22108500062342148 -2.024102301263717 -21.534926262693727 0.15311205695052865 1.615544183535755 0.01615178114170216 -7.187020345295437 0.5421129614198599 6.434793652878031 0.0 0.0 0.0 0.5176799920013457 -0.21511246341554144 7.476868268064698 23.510892056351107 28.810473290873052 -20.607742612350158 15.457786368694348 8.383607861355097 -69.25117105015362 0.0 0.0 0.0 -1.3987106160318736 0.03905491146856203 1.4108658772422786 -51.16262087265411 17.98304905669939 18.629505477942836 -24.384689557034065 -12.12272772505692 52.29862288356409 0.0 0.0 0.0
-318.83032956464956 162.10073450130815 1314.8165715542723 0.2491010515353981 -2.0930239618568245 -21.509635752116193 0.13738032459524524 1.6698460418491783 0.020356322354145487 -7.177450452217387 0.5366266452877237 6.426300545249728 0.0 0.0 0.0 0.4990348961532875 -0.21678561117525677 7.435627155136621 23.51538707092715 28.810612242819975 -20.57706274560674 15.472088318474539 8.401177446307388 -69.22907944123374 0.0 0.0 0.0 -1.4005135065101475 0.03674313204518731 1.3839469580339199 -51.19251379536348 17.996517537155412 18.602592702227568 -24.439587115514925 -12.121683821962945 52.29368419286027 0.0 0.0 0.0
-318.6597086034286 161.93072541334877 1313.0153084295007 0.28005615848420334 -2.1714965507782233 -21.48061072857243 0.11758283208536681 1.7346882778936188 0.02553158220291533 -7.16583102206609 0.5282081474216288 6.416014840555321 0.0 0.0 0.0 0.47769129248644365 -0.21891865422102283 7.392808253356341 23.522511070951825 28.814415222619658 -20.545874232927538 15.489327430935683 8.422554367267308 -69.20536036162349 0.0 0.0 0.0 -1.4001729687667035 0.034324366486190694 1.3546152855917437 -51.226141426109386 18.01149570266334 18.56878371521553 -24.499928766159204 -12.120546474925023 52.28879915537472 0.0 0.0 0.0
-318.48003789163573 161.75224960129339 1311.079811483026 0.31372001031243474 -2.2595680008403494 -21.447611742755516 0.09378957168348537 1.8101732995138637 0.03165656799104252 -7.152128115370408 0.5169496955101387 6.403904465574888 0.0 0.0 0.0 0.4536818547595532 -0.221510855826659 7.348445601397218 23.532281422187133 28.821951881400192 -20.514429067277394 15.509474275484251 8.447712435521858 -69.18028656398366 0.0 0.0 0.0 -1.3975425222735747 0.031821771638999755 1.323051859491952 -51.26279777048049 18.027627525869555 18.528071478074583 -24.565019124229746 -12.119330660509181 52.28419082093366 0.0 0.0 0.0
